<?xml version="1.0" encoding="UTF-8"?>
<svg xmlns="http://www.w3.org/2000/svg" width="64" height="64" viewBox="0 0 64 64">
  <defs>
    <linearGradient id="g" x1="0%" y1="0%" x2="100%" y2="0%">
      <stop offset="0%" stop-color="#00E5FF"/>
      <stop offset="50%" stop-color="#7E57C2"/>
      <stop offset="100%" stop-color="#FF3FD1"/>
    </linearGradient>
    <filter id="glow" x="-50%" y="-50%" width="200%" height="200%">
      <feGaussianBlur stdDeviation="3" result="b"/>
      <feMerge>
        <feMergeNode in="b"/>
        <feMergeNode in="SourceGraphic"/>
      </feMerge>
    </filter>
  </defs>
  <rect width="64" height="64" rx="14" ry="14" fill="#0b1020"/>
  <path d="M10,32
           C10,22 18,16 26,16
           C31,16 35,18.5 40,24
           C45,29.5 49,32 54,32
           C58,32 60,28.5 60,25
           C60,18 54,12 46,12
           C39,12 34,16 32,20
           C30,24 25,28 18,28
           C14,28 10,26 10,22"
        fill="none" stroke="url(#g)" stroke-width="5" stroke-linecap="round" stroke-linejoin="round"
        filter="url(#glow)"/>
</svg>
